<svg xmlns="http://www.w3.org/2000/svg" viewBox="0 0 880 317"><defs><linearGradient id="g" x1="0" y1="-45" x2="0" y2="45" gradientUnits="userSpaceOnUse"><stop offset="0" stop-color="#6C5CF5"/><stop offset="1" stop-color="#9A8BFF"/></linearGradient></defs><g transform="translate(73.00,154.50) scale(1.12)"><rect x="-8.5" y="-31.0" width="17" height="62.0" rx="8.5" fill="url(#g)"/><rect x="21.5" y="-43.0" width="17" height="86.0" rx="8.5" fill="url(#g)"/><rect x="51.5" y="-24.0" width="17" height="48.0" rx="8.5" fill="url(#g)"/><circle cx="92" cy="0" r="8.5" fill="#6C5CF5" opacity="1.0"/><circle cx="116" cy="0" r="8.5" fill="#6C5CF5" opacity="0.62"/><circle cx="140" cy="0" r="8.5" fill="#6C5CF5" opacity="0.4"/></g><g transform="translate(278.8,214.0)"><path transform="translate(0.00,0) scale(0.15000,-0.15000)" d="M57.5 0V483H189V0ZM372.5 0V285Q372.5 327.25 346.25 350.75Q320 374.25 281.25 374.25Q254.75 374.25 234.0 363.625Q213.25 353 201.125 333.125Q189 313.25 189 285L137.75 310Q137.75 366.25 162.375 407.0Q187 447.75 229.0 470.375Q271 493 323.5 493Q374.25 493 415.125 470.5Q456 448 480.0 407.375Q504 366.75 504 310.25V0ZM687.5 0V285Q687.5 327.25 661.25 350.75Q635 374.25 596.25 374.25Q570.5 374.25 549.375 363.625Q528.25 353 516.125 333.125Q504 313.25 504 285L428.75 302.75Q432.5 361.25 459.625 403.625Q486.75 446 530.875 469.5Q575 493 629 493Q682.75 493 725.625 470.25Q768.5 447.5 793.75 405.75Q819 364 819 305.5V0Z" fill="#15131C"/><path transform="translate(128.25,0) scale(0.15000,-0.15000)" d="M263.75 -10.5Q200.29676258992805 -10.5 150.64838129496403 16.75Q101 44 73.125 92.00954653937947Q45.25 140.01909307875894 45.25 202.759502881425V483H176.75V206Q176.75 175.96142857142857 186.96875 154.65214285714285Q197.1875 133.34285714285716 216.96394230769232 121.92142857142858Q236.7403846153846 110.5 263.99568965517244 110.5Q305 110.5 327.75 135.515Q350.5 160.53 350.5 206V483H482V202.75Q482 139.25 454.25 91.25Q426.5 43.25 377.32374100719426 16.375Q328.1474820143885 -10.5 263.75 -10.5Z" fill="#15131C"/><path transform="translate(205.65,0) scale(0.15000,-0.15000)" d="M57.5 0V483H189V0ZM372.5 0V285Q372.5 327.25 346.25 350.75Q320 374.25 281.25 374.25Q254.75 374.25 234.0 363.625Q213.25 353 201.125 333.125Q189 313.25 189 285L137.75 310Q137.75 366.25 162.375 407.0Q187 447.75 229.0 470.375Q271 493 323.5 493Q374.25 493 415.125 470.5Q456 448 480.0 407.375Q504 366.75 504 310.25V0ZM687.5 0V285Q687.5 327.25 661.25 350.75Q635 374.25 596.25 374.25Q570.5 374.25 549.375 363.625Q528.25 353 516.125 333.125Q504 313.25 504 285L428.75 302.75Q432.5 361.25 459.625 403.625Q486.75 446 530.875 469.5Q575 493 629 493Q682.75 493 725.625 470.25Q768.5 447.5 793.75 405.75Q819 364 819 305.5V0Z" fill="#15131C"/><path transform="translate(333.90,0) scale(0.15000,-0.15000)" d="M326 -10Q273.75 -10 231.75 11.875Q189.75 33.75 164.625 71.625Q139.5 109.5 137.5 157V328.5Q139.5 376 165.0 413.25Q190.5 450.5 232.5 471.75Q274.5 493 326 493Q393 493 446.0 459.75Q499 426.5 529.5 369.625Q560 312.75 560 240.75Q560 169.5 529.5 112.75Q499 56 446.0 23.0Q393 -10 326 -10ZM57.5 0V723H189V364.25L166.75 247.5L187.75 129.75V0ZM303.5 111Q339.5 111 367.0 127.625Q394.5 144.25 410.25 173.75Q426 203.25 426 241.5Q426 279.75 410.25 309.25Q394.5 338.75 366.875 355.375Q339.25 372 303.25 372Q267.25 372 239.375 355.375Q211.5 338.75 196.25 309.375Q181 280 181 241.5Q181 203 196.375 173.5Q211.75 144 239.625 127.5Q267.5 111 303.5 111Z" fill="#15131C"/><path transform="translate(420.30,0) scale(0.15000,-0.15000)" d="M57.5 0V723H189V0Z" fill="#15131C"/><path transform="translate(455.55,0) scale(0.15000,-0.15000)" d="M288.75 -10.5Q213.25 -10.5 153.875 22.0Q94.5 54.5 60.25 111.875Q26 169.25 26 241.5Q26 313.5 59.625 370.375Q93.25 427.25 151.125 460.375Q209 493.5 280.25 493.5Q349.75 493.5 403.125 462.375Q456.5 431.25 487.0 376.75Q517.5 322.25 517.5 252.5Q517.5 239.75 516.0 226.25Q514.5 212.75 511 196L104.5 195.25V292.75L450 293.5L396.5 253.25Q395 296.25 381.375 325.125Q367.75 354 342.375 369.25Q317 384.5 279.75 384.5Q240.75 384.5 212.0 367.25Q183.25 350 167.625 318.625Q152 287.25 152 243.5Q152 199.5 168.625 167.125Q185.25 134.75 216.0 117.375Q246.75 100 288 100Q324.5 100 354.75 112.625Q385 125.25 407 150.25L484 72.75Q448.5 31.5 398.0 10.5Q347.5 -10.5 288.75 -10.5Z" fill="#15131C"/></g></svg>